<svg xmlns="http://www.w3.org/2000/svg" xmlns:xlink="http://www.w3.org/1999/xlink" width="204" height="75" viewBox="0 0 204 75">
    <defs>
        <path id="a" d="M0 .075h203.721V75H0z"/>
    </defs>
    <g fill="none" fill-rule="evenodd">
        <mask id="b" fill="#fff">
            <use xlink:href="#a"/>
        </mask>
        <path fill="#A9AAA9" d="M185.887 0H17.845c-.687 0-1.364 0-2.049.004-.573.003-1.142.015-1.72.024-1.246.03-2.506.107-3.75.33a12.56 12.56 0 0 0-3.558 1.176 12.062 12.062 0 0 0-3.029 2.21 11.783 11.783 0 0 0-2.206 3.04 12.437 12.437 0 0 0-1.17 3.568c-.225 1.243-.303 2.5-.335 3.754C.011 14.68.01 15.259 0 15.832v43.341c.01.581.011 1.146.028 1.727.032 1.256.11 2.513.335 3.754.22 1.256.588 2.434 1.17 3.572a11.686 11.686 0 0 0 2.206 3.026c.886.896 1.91 1.64 3.029 2.21 1.141.585 2.305.957 3.557 1.184 1.245.223 2.505.296 3.751.33.578.013 1.147.02 1.72.02.685.004 1.362.004 2.05.004h168.041c.674 0 1.355 0 2.029-.004.57 0 1.156-.007 1.727-.02 1.254-.034 2.51-.107 3.743-.33a12.759 12.759 0 0 0 3.571-1.183 11.802 11.802 0 0 0 3.027-2.211c.89-.881 1.632-1.91 2.21-3.026a12.382 12.382 0 0 0 1.158-3.572c.233-1.241.304-2.498.349-3.754.005-.581.005-1.146.005-1.727.015-.682.015-1.36.015-2.051V17.88c0-.686 0-1.367-.015-2.047 0-.574 0-1.152-.005-1.727-.045-1.255-.116-2.511-.349-3.754a12.414 12.414 0 0 0-1.158-3.568 12.12 12.12 0 0 0-5.237-5.25 12.742 12.742 0 0 0-3.57-1.176c-1.234-.223-2.49-.3-3.744-.33-.57-.01-1.156-.02-1.727-.024C187.242 0 186.56 0 185.887 0" mask="url(#b)"/>
        <path fill="#000" d="M15.805 73.36c-.57 0-1.126-.008-1.692-.021-1.048-.028-2.288-.088-3.5-.306a10.962 10.962 0 0 1-3.099-1.027A10.058 10.058 0 0 1 4.9 70.1a9.991 9.991 0 0 1-1.911-2.62c-.485-.947-.816-1.963-1.016-3.107-.229-1.261-.287-2.54-.311-3.515-.013-.396-.028-1.712-.028-1.712V15.833s.017-1.296.028-1.677c.024-.982.082-2.261.309-3.51.2-1.151.531-2.167 1.018-3.116a10.008 10.008 0 0 1 1.9-2.621A10.42 10.42 0 0 1 7.512 2.99c.962-.49 1.975-.824 3.094-1.02 1.262-.225 2.538-.284 3.511-.308l1.688-.022h172.101l1.71.024c.96.022 2.236.08 3.477.304 1.128.198 2.15.534 3.127 1.027.962.493 1.84 1.137 2.605 1.905a10.37 10.37 0 0 1 1.915 2.633c.483.958.812 1.974 1.003 3.092.217 1.183.284 2.398.324 3.538.005.53.005 1.102.005 1.668.017.704.017 1.373.017 2.048v39.242c0 .68 0 1.346-.017 2.016 0 .609 0 1.168-.007 1.743-.038 1.105-.105 2.318-.32 3.475a10.74 10.74 0 0 1-1.01 3.13 10.258 10.258 0 0 1-1.899 2.6 10.147 10.147 0 0 1-2.62 1.916c-.971.495-1.961.823-3.123 1.031-1.196.218-2.437.278-3.498.306-.547.013-1.121.02-1.68.02l-2.028.004-170.082-.004"/>
        <path fill="#FFFFFE" d="M70.25 28.554h6.01l-2.962-8.743h-.083l-2.964 8.743zm6.796 2.487h-7.581l-1.821 5.387h-3.212l7.181-19.932h3.337l7.183 19.932h-3.265l-1.822-5.387zM94.585 29.162c0-2.942-1.518-4.875-3.833-4.875-2.276 0-3.805 1.974-3.805 4.875 0 2.929 1.53 4.888 3.805 4.888 2.315 0 3.833-1.92 3.833-4.888zm3.06 0c0 4.515-2.413 7.417-6.055 7.417-2.064 0-3.705-.926-4.562-2.542h-.068v7.196h-2.978V21.896h2.883v2.417h.054c.827-1.56 2.592-2.569 4.619-2.569 3.681 0 6.107 2.916 6.107 7.418zM110.547 29.162c0-2.942-1.517-4.875-3.83-4.875-2.276 0-3.807 1.974-3.807 4.875 0 2.929 1.53 4.888 3.806 4.888 2.314 0 3.831-1.92 3.831-4.888zm3.062 0c0 4.515-2.414 7.417-6.054 7.417-2.066 0-3.708-.926-4.563-2.542h-.07v7.196h-2.977V21.896h2.882v2.417h.055c.829-1.56 2.593-2.569 4.619-2.569 3.68 0 6.108 2.916 6.108 7.418zM124.157 30.874c.221 1.976 2.138 3.274 4.756 3.274 2.51 0 4.316-1.298 4.316-3.08 0-1.546-1.09-2.474-3.668-3.108l-2.578-.623c-3.653-.883-5.348-2.595-5.348-5.371 0-3.44 2.99-5.802 7.237-5.802 4.205 0 7.086 2.363 7.183 5.802h-3.006c-.178-1.99-1.819-3.19-4.218-3.19-2.4 0-4.041 1.215-4.041 2.982 0 1.41 1.05 2.238 3.614 2.874l2.192.538c4.081.967 5.775 2.61 5.775 5.526 0 3.727-2.962 6.063-7.679 6.063-4.411 0-7.39-2.28-7.582-5.885h3.047M142.798 18.457v3.44h2.759v2.362h-2.759v8.01c0 1.245.552 1.824 1.767 1.824.303 0 .786-.043.979-.07v2.348c-.332.085-.992.139-1.655.139-2.936 0-4.08-1.104-4.08-3.922v-8.33H137.7v-2.362h2.11v-3.439h2.988M157.88 29.162c0-3.137-1.436-4.986-3.849-4.986-2.412 0-3.846 1.864-3.846 4.986 0 3.148 1.434 4.986 3.846 4.986 2.413 0 3.848-1.838 3.848-4.986zm-10.727 0c0-4.571 2.688-7.444 6.878-7.444 4.206 0 6.882 2.873 6.882 7.444 0 4.584-2.661 7.446-6.882 7.446-4.218 0-6.878-2.862-6.878-7.446zM163.368 21.896h2.838v2.473h.069c.455-1.644 1.78-2.625 3.489-2.625.426 0 .786.057 1.021.111v2.79c-.235-.098-.761-.18-1.338-.18-1.918 0-3.105 1.3-3.105 3.343v8.62h-2.974V21.896M174.446 27.821h7.252c-.07-2.224-1.49-3.686-3.56-3.686-2.052 0-3.54 1.49-3.692 3.686zm10.064 4.337c-.4 2.638-2.963 4.45-6.246 4.45-4.218 0-6.838-2.834-6.838-7.377 0-4.558 2.635-7.513 6.713-7.513 4.014 0 6.535 2.762 6.535 7.166v1.022h-10.24v.18c0 2.486 1.556 4.118 3.9 4.118 1.654 0 2.95-.788 3.35-2.046h2.826zM73.867 48.257l1.285-.866c2.027 1.785 2.767 4.325 3.014 6.534l-1.692.263c-.176-2.224-.775-4.324-2.607-5.931zm-5.673 9.514l.122-1.536a5.824 5.824 0 0 0 1.78.285c.546 0 .758-.054 1.023-.426.474-.688.809-2.206.809-4.34 0-1.59-.492-2.05-1.743-2.05-.282 0-.6.02-.952.036-.81 3.038-1.975 5.79-3.313 7.73l-1.463-.792c1.287-1.712 2.345-4.114 3.084-6.78-.95.106-1.956.266-2.871.478l-.318-1.555a42.306 42.306 0 0 1 3.56-.476c.228-1.148.44-2.347.546-3.547l1.727.193a39.645 39.645 0 0 1-.6 3.213h.686c2.239 0 3.313 1.112 3.313 3.477 0 2.437-.44 4.273-1.022 5.242-.492.814-1.093 1.13-2.113 1.13a9.638 9.638 0 0 1-2.255-.282zM82.37 46.297l.44-1.554c2.185.338 5.374 1.043 6.926 1.59l-.423 1.536c-1.393-.529-4.793-1.307-6.944-1.572zm1.639 11.721l-.352-1.588a19.5 19.5 0 0 0 1.374.053c3.488 0 4.81-.987 4.81-2.455 0-1.164-.759-1.834-2.45-1.834-1.479 0-3.17.83-4.827 2.367l-1.357-.602c0-3.372.352-4.926 1.497-6.619l1.569.512c-1.075 1.429-1.339 2.788-1.339 4.59 1.443-.99 3.242-1.643 4.81-1.643 2.362 0 3.824 1.217 3.824 3.195 0 2.507-1.975 4.043-6.713 4.043-.23 0-.564-.019-.846-.019zM106.308 44.303l1.003-.477c.547.76.934 1.43 1.288 2.226l-1.11.476c-.282-.76-.67-1.5-1.18-2.225zm-2.202.178l.986-.479c.53.724.952 1.448 1.252 2.172l-1.11.512c-.266-.777-.67-1.517-1.128-2.205zM96.67 56.8a11.147 11.147 0 0 0 4.74-3.073 20.129 20.129 0 0 0-3.295-2.222l.97-1.218c1.285.67 2.378 1.359 3.345 2.116.884-1.305 1.464-2.717 1.728-4.078h-4.492c-1.04 1.678-2.362 3.214-3.842 4.433l-1.286-1.112c2.115-1.75 4.035-4.326 4.898-6.744l1.692.406c-.193.495-.388 1.005-.616 1.483h4.37l1.25.584c-.898 5.083-3.842 9.159-8.44 10.802L96.67 56.8zM114.017 58.106l-.898-1.428c4.722-1.148 6.114-4.255 6.202-7.785h-7.4v3.549h-1.78V47.39h4.423v-2.593h1.78v2.593h3.295l1.621.46c-.211 5.013-1.884 8.843-7.243 10.255M125.022 56.218c4.211-.6 8.212-3.371 10.168-7.344l1.162 1.308c-2.186 4.094-6.344 7.06-10.658 7.677l-.672-1.64zm-.333-8.702l.986-1.45c1.602.743 3.225 1.731 4.333 2.633l-1.127 1.517c-1.128-.97-2.624-1.924-4.192-2.7zM141.456 55.442h7.576v-7.256h-7.576v7.256zm-1.746 1.624h11.083V46.562H139.71v10.504zM154.203 52.352h12.458v-1.8h-12.458zM177.048 45.043l1.059-.493c.58.812.95 1.517 1.321 2.4l-1.147.512c-.333-.9-.72-1.64-1.233-2.419zm-2.009.761l1.041-.495c.528.758.934 1.59 1.252 2.4l-1.147.514a10.288 10.288 0 0 0-1.146-2.419zm-4.14-.954h1.745v4.519c2.485 1.042 4.81 2.225 6.73 3.373l-.986 1.552c-1.657-1.076-3.646-2.152-5.744-3.088v6.812H170.9V44.85zM46.357 38.064c-.047-5.158 4.214-7.668 4.41-7.787-2.413-3.524-6.157-4.006-7.47-4.044-3.143-.332-6.19 1.884-7.792 1.884-1.632 0-4.096-1.852-6.752-1.796-3.418.053-6.618 2.037-8.372 5.115-3.62 6.278-.919 15.505 2.547 20.578 1.735 2.487 3.762 5.264 6.416 5.164 2.596-.107 3.566-1.66 6.698-1.66 3.105 0 4.015 1.66 6.721 1.598 2.785-.045 4.54-2.497 6.216-5.006 2.004-2.848 2.809-5.655 2.84-5.797-.065-.023-5.41-2.065-5.462-8.249M41.244 22.896c1.396-1.75 2.352-4.13 2.086-6.546-2.02.09-4.548 1.4-6.004 3.112-1.287 1.508-2.436 3.98-2.14 6.302 2.27.171 4.601-1.147 6.058-2.868"/>
    </g>
</svg>
