<svg xmlns="http://www.w3.org/2000/svg" width="219" height="65" viewBox="0 0 219 65">
    <defs>
        <linearGradient id="a" x1="91.495%" x2="-38.237%" y1="4.946%" y2="71.879%">
            <stop offset="0%" stop-color="#00A0FF"/>
            <stop offset="1%" stop-color="#00A1FF"/>
            <stop offset="26%" stop-color="#00BEFF"/>
            <stop offset="51%" stop-color="#00D2FF"/>
            <stop offset="76%" stop-color="#00DFFF"/>
            <stop offset="100%" stop-color="#00E3FF"/>
        </linearGradient>
        <linearGradient id="b" x1="107.685%" x2="-130.64%" y1="50%" y2="50%">
            <stop offset="0%" stop-color="#FFE000"/>
            <stop offset="41%" stop-color="#FFBD00"/>
            <stop offset="78%" stop-color="#FFA500"/>
            <stop offset="100%" stop-color="#FF9C00"/>
        </linearGradient>
        <linearGradient id="c" x1="86.271%" x2="-50.18%" y1="17.871%" y2="194.64%">
            <stop offset="0%" stop-color="#FF3A44"/>
            <stop offset="100%" stop-color="#C31162"/>
        </linearGradient>
        <linearGradient id="d" x1="-18.825%" x2="42.086%" y1="-54.03%" y2="24.928%">
            <stop offset="0%" stop-color="#32A071"/>
            <stop offset="7%" stop-color="#2DA771"/>
            <stop offset="48%" stop-color="#15CF74"/>
            <stop offset="80%" stop-color="#06E775"/>
            <stop offset="100%" stop-color="#00F076"/>
        </linearGradient>
    </defs>
    <g fill="none" fill-rule="nonzero">
        <rect width="219" height="65" fill="#000" rx="8.125"/>
        <path fill="#A6A6A6" d="M210.889 1.3c3.763 0 6.813 3.056 6.813 6.825v48.75c0 3.77-3.05 6.825-6.813 6.825H8.11c-3.763 0-6.813-3.056-6.813-6.825V8.125c0-3.77 3.05-6.825 6.813-6.825H210.89zm0-1.3H8.11C3.631 0 0 3.638 0 8.125v48.75C0 61.362 3.631 65 8.111 65H210.89c4.48 0 8.111-3.638 8.111-8.125V8.125C219 3.638 215.369 0 210.889 0z"/>
        <path fill="#FFF" d="M104.99 20.784a6.04 6.04 0 0 0-6.002 6.066 6.04 6.04 0 0 0 6.045 6.024 6.04 6.04 0 0 0 6.024-6.045 5.969 5.969 0 0 0-1.754-4.31 5.948 5.948 0 0 0-4.313-1.735zm0 9.75a3.665 3.665 0 0 1-3.568-2.081 3.677 3.677 0 0 1 .628-4.088 3.662 3.662 0 0 1 4.028-.91 3.672 3.672 0 0 1 2.319 3.423 3.497 3.497 0 0 1-.952 2.515 3.485 3.485 0 0 1-2.455 1.092v.049zm-13.205-9.75a6.04 6.04 0 0 0-6.002 6.066 6.04 6.04 0 0 0 6.046 6.024 6.04 6.04 0 0 0 6.023-6.045 5.969 5.969 0 0 0-1.754-4.31 5.948 5.948 0 0 0-4.313-1.735zm0 9.75a3.665 3.665 0 0 1-3.568-2.081 3.677 3.677 0 0 1 .629-4.088 3.662 3.662 0 0 1 4.027-.91 3.672 3.672 0 0 1 2.319 3.423 3.497 3.497 0 0 1-.952 2.515 3.485 3.485 0 0 1-2.455 1.092v.049zm-15.703-7.898v2.568h6.116a5.204 5.204 0 0 1-1.395 3.25 6.208 6.208 0 0 1-4.72 1.885 6.82 6.82 0 0 1-6.482-6.817 6.82 6.82 0 0 1 6.481-6.817 6.483 6.483 0 0 1 4.607 1.82l1.817-1.804a8.963 8.963 0 0 0-6.489-2.584 9.373 9.373 0 0 0-8.444 4.576 9.406 9.406 0 0 0 0 9.617 9.373 9.373 0 0 0 8.444 4.576 8.606 8.606 0 0 0 6.49-2.632 8.507 8.507 0 0 0 2.205-5.997 7.976 7.976 0 0 0-.13-1.625l-8.5-.016zm64.24 1.999a5.614 5.614 0 0 0-5.158-3.851 5.738 5.738 0 0 0-4.136 1.804 5.758 5.758 0 0 0-1.558 4.24 5.92 5.92 0 0 0 1.71 4.297 5.9 5.9 0 0 0 4.276 1.749 6.016 6.016 0 0 0 5.028-2.682l-2.06-1.38a3.438 3.438 0 0 1-2.968 1.624 3.066 3.066 0 0 1-2.92-1.836l8.11-3.331-.324-.634zm-8.224 2.015a3.254 3.254 0 0 1 .819-2.45 3.242 3.242 0 0 1 2.344-1.076 2.335 2.335 0 0 1 2.239 1.284l-5.402 2.242zm-6.49 5.85h2.548V14.739h-2.612l.065 17.761zm-4.33-10.367h-.098a4.166 4.166 0 0 0-3.244-1.35 6.04 6.04 0 0 0-6.035 6.046 6.04 6.04 0 0 0 6.035 6.045 4.133 4.133 0 0 0 3.244-1.382h.097v.878c.14.923-.146 1.86-.776 2.549a3.08 3.08 0 0 1-2.468.994 3.245 3.245 0 0 1-3.034-2.162l-2.303.975a5.726 5.726 0 0 0 5.337 3.559c3.115 0 5.743-1.82 5.743-6.289V21.125h-2.564l.065 1.008zm-3.05 8.352a3.67 3.67 0 0 1-3.423-3.664 3.67 3.67 0 0 1 3.423-3.665 3.404 3.404 0 0 1 2.405 1.153c.612.696.915 1.612.839 2.536a3.367 3.367 0 0 1-.864 2.541 3.355 3.355 0 0 1-2.445 1.099h.065zm34.585-15.746h-6.343V32.5h2.645v-6.727h3.698a5.513 5.513 0 0 0 5.025-2.669 5.533 5.533 0 0 0 0-5.697 5.513 5.513 0 0 0-5.025-2.668zm0 8.563h-3.763V17.21h3.763a3.048 3.048 0 0 1 2.826 1.455 3.06 3.06 0 0 1 0 3.183 3.048 3.048 0 0 1-2.826 1.455zm16.352-2.55a4.963 4.963 0 0 0-4.72 2.713l2.352.991a2.465 2.465 0 0 1 2.417-1.3 2.528 2.528 0 0 1 2.774 2.275v.179a6.01 6.01 0 0 0-2.758-.683c-2.53 0-5.11 1.398-5.11 3.998a4.114 4.114 0 0 0 1.373 2.888 4.1 4.1 0 0 0 3.023 1.028c1.38.1 2.701-.568 3.44-1.739V32.5h2.546v-6.841c.033-3.153-2.303-4.908-5.337-4.908zm-.324 9.75c-.86 0-2.077-.44-2.077-1.512 0-1.365 1.51-1.901 2.807-1.901.828-.034 1.65.15 2.385.536a3.247 3.247 0 0 1-3.115 2.86v.016zm15.005-9.377l-3.033 7.703h-.097l-3.148-7.703h-2.838l4.72 10.758-2.628 5.996h2.758l7.203-16.754h-2.937zM160.016 32.5h2.644V14.739h-2.644V32.5z"/>
        <path fill="url(#a)" d="M16.936 12.252a3.254 3.254 0 0 0-.762 2.275v35.945c-.056.83.218 1.648.762 2.276l.114.13 20.099-20.134v-.488l-20.1-20.117-.113.114z"/>
        <path fill="url(#b)" d="M43.8 39.455l-6.651-6.711v-.488l6.651-6.711.146.097 7.965 4.518c2.271 1.284 2.271 3.396 0 4.696l-7.933 4.518-.178.081z"/>
        <path fill="url(#c)" d="M43.995 39.358L37.149 32.5 16.936 52.748a2.625 2.625 0 0 0 3.358.113l23.7-13.503"/>
        <path fill="url(#d)" d="M43.995 25.642L20.294 12.155a2.608 2.608 0 0 0-3.358.098L37.149 32.5l6.846-6.858z"/>
        <path fill="#000" d="M43.8 39.211L20.294 52.618a2.69 2.69 0 0 1-3.244 0l-.114.113.114.13a2.69 2.69 0 0 0 3.244 0l23.7-13.503-.194-.147z" opacity=".2"/>
        <path fill="#000" d="M16.936 52.52a3.254 3.254 0 0 1-.714-2.291v.243c-.055.83.219 1.648.763 2.276l.113-.114-.162-.114zM51.911 34.612l-8.111 4.6.146.145 7.965-4.517a2.843 2.843 0 0 0 1.72-2.34 3.021 3.021 0 0 1-1.72 2.112z" opacity=".12"/>
        <path fill="#FFF" d="M20.294 12.383l31.617 18.005a3.021 3.021 0 0 1 1.72 2.112 2.843 2.843 0 0 0-1.72-2.34L20.294 12.155c-2.255-1.3-4.12-.227-4.12 2.373v.243c.048-2.6 1.865-3.672 4.12-2.389z" opacity=".25"/>
        <path fill="#FFF" stroke="#FFF" stroke-width=".5" d="M67.809 43.875c.957-.097 3.682-.358 6.343-.585a89.487 89.487 0 0 1 3.893-.244v1.17a11.434 11.434 0 0 0-2.823.228 5.07 5.07 0 0 0-3.244 4.582c0 2.811 2.628 3.705 4.98 3.803l-.422 1.218c-2.676-.113-5.726-1.543-5.726-4.777a5.869 5.869 0 0 1 2.693-4.875c-1.282.146-5.224.536-6.781.861l-.13-1.3c.487.016.941 0 1.217-.081zm9.393 4.144l-.747.341a14.29 14.29 0 0 0-1.2-2.064l.746-.309c.453.662.854 1.357 1.2 2.08v-.048zm1.622-.634l-.763.358c-.352-.72-.77-1.406-1.249-2.048l.73-.325c.486.66.93 1.349 1.33 2.064l-.048-.049zM93.375 49.985h-6.002v3.25c0 .78-.227 1.105-.763 1.284-.993.194-2.008.254-3.017.178a5.14 5.14 0 0 0-.47-1.072h2.709c.34 0 .454-.114.454-.406v-3.25h-6.002v-1.056h6.002V46.54h-5.029V45.5h5.029v-2.259a71.826 71.826 0 0 1-4.77.358 3.645 3.645 0 0 0-.275-.959 48.83 48.83 0 0 0 9.88-1.235l.81.861a25.09 25.09 0 0 1-4.558.861V45.5h5.175v1.04h-5.175v2.373h6.002v1.072zM97.82 42.656c0 .244-.21.715-.276.975a33.546 33.546 0 0 0-.697 5.541 16.7 16.7 0 0 0 .113 2c.244-.667.568-1.512.795-2.08l.633.454a33.614 33.614 0 0 0-1.022 3.25 3.256 3.256 0 0 0 0 .65v.504h-1.038a18.132 18.132 0 0 1-.617-4.566c.073-1.953.29-3.897.649-5.818 0-.325.097-.715.097-1.024l1.363.114zm3.244 7.02a4.72 4.72 0 0 0-.194 1.333c0 .65.438 1.3 2.417 1.3 1.225.046 2.45-.058 3.65-.309v1.235c-1.194.213-2.405.31-3.618.293-2.417 0-3.504-.813-3.504-2.162a8.61 8.61 0 0 1 .244-1.722l1.005.032zm-.486-5.915a25.15 25.15 0 0 0 5.953 0v1.203a36.211 36.211 0 0 1-5.937 0l-.016-1.203zM116.265 42.25a12.535 12.535 0 0 0 6.05 11.538c-.327.26-.621.56-.875.893a12.593 12.593 0 0 1-5.792-8.125 12.999 12.999 0 0 1-5.824 8.125 8.764 8.764 0 0 0-.99-.861c3.245-1.625 5.03-4.615 5.922-8.71l.649.098a17.058 17.058 0 0 1-.227-1.853h-3.57V42.25h4.657zM136.542 52.455a3.745 3.745 0 0 1-2.66 1.203c-.94 0-1.622-.634-1.622-1.837 0-1.625.535-3.997.535-5.395 0-.845-.422-1.186-1.152-1.186a7.867 7.867 0 0 0-4.25 2.795V54.031h-1.281v-.861-3.705-.569c-.714 1.073-1.623 2.47-2.353 3.429l-.47-.943c.795-1.007 2.466-3.25 3.244-4.403V45.58l-2.806.374-.13-1.219c.319.024.639.024.957 0 .47 0 1.314-.113 2.06-.227v-1.365a6.006 6.006 0 0 0 0-1.073h1.38c0 .358-.195 1.17-.293 2.178l.422.503c-.178.26-.422.667-.649 1.008-.227.341 0 .553 0 .829a8.107 8.107 0 0 1 4.429-2.438 1.799 1.799 0 0 1 1.481.487c.395.38.596.918.547 1.463 0 1.447-.536 3.949-.536 5.412 0 .503.244.877.747.877a3.243 3.243 0 0 0 2.173-1.203l.227 1.268zM144.686 46.264c0 .942 0 2.356.146 3.607a11.48 11.48 0 0 1 4.494 2.47l-.698 1.089a9.99 9.99 0 0 0-3.747-2.389v.975c0 1.187-.73 2.21-2.66 2.21-1.931 0-3.44-.601-3.44-2.226 0-1.3 1.152-2.373 3.65-2.373a7.66 7.66 0 0 1 1.217 0c0-1.17-.114-2.502-.114-3.363v-2.649a9.978 9.978 0 0 0-.13-1.365h1.396c0 .309-.098.991-.114 1.43-.016.439 0 .91 0 1.479 1.152 0 2.985-.098 4.283-.276v1.104a83.912 83.912 0 0 1-4.332.244l.049.033zm-.99 4.452a6.932 6.932 0 0 0-1.41-.146c-1.493 0-2.337.52-2.337 1.316s.795 1.235 2.19 1.235c1.055 0 1.622-.504 1.622-1.495-.048-.227-.065-.536-.065-.91zM158.02 46.638a13.541 13.541 0 0 0-3.941.747c-.438.114-.86.293-1.217.422l-.357-1.348c.39 0 .892-.13 1.314-.212a19.582 19.582 0 0 1 4.315-.698 3.24 3.24 0 0 1 2.529.815 3.253 3.253 0 0 1 1.073 2.435c0 3.136-2.79 4.875-6.49 5.476l-.68-1.105c3.503-.439 5.985-1.82 5.985-4.42a2.179 2.179 0 0 0-.782-1.637 2.171 2.171 0 0 0-1.748-.475zm2.58-3.77l-.178 1.12c-1.623-.097-4.526-.39-6.165-.682l.195-1.105c2.029.382 4.084.605 6.148.666z"/>
    </g>
</svg>
